<?xml version="1.0" encoding="UTF-8" standalone="no"?>
<!-- Created with Inkscape (http://www.inkscape.org/) -->

<svg
   version="1.1"
   id="svg2"
   xml:space="preserve"
   width="687.87335"
   height="971.33868"
   viewBox="0 0 687.87335 971.33868"
   sodipodi:docname="front.svg"
   inkscape:version="1.1 (c68e22c387, 2021-05-23)"
   xmlns:inkscape="http://www.inkscape.org/namespaces/inkscape"
   xmlns:sodipodi="http://sodipodi.sourceforge.net/DTD/sodipodi-0.dtd"
   xmlns="http://www.w3.org/2000/svg"
   xmlns:svg="http://www.w3.org/2000/svg"><defs
     id="defs6"><clipPath
       clipPathUnits="userSpaceOnUse"
       id="clipPath16"><path
         d="M 0,728.504 H 515.905 V 0 H 0 Z"
         id="path14" /></clipPath></defs><sodipodi:namedview
     id="namedview4"
     pagecolor="#ffffff"
     bordercolor="#666666"
     borderopacity="1.0"
     inkscape:pageshadow="2"
     inkscape:pageopacity="0.0"
     inkscape:pagecheckerboard="0"
     showgrid="false"
     inkscape:zoom="0.86272689"
     inkscape:cx="343.67771"
     inkscape:cy="486.2489"
     inkscape:window-width="1920"
     inkscape:window-height="1016"
     inkscape:window-x="0"
     inkscape:window-y="27"
     inkscape:window-maximized="1"
     inkscape:current-layer="g8" /><g
     id="g8"
     inkscape:groupmode="layer"
     inkscape:label="front"
     transform="matrix(1.3333333,0,0,-1.3333333,0,971.33867)"><g
       id="g10"><g
         id="g12"
         clip-path="url(#clipPath16)"><text
           transform="matrix(1,0,0,-1,116.604,447.1812)"
           style="font-variant:normal;font-weight:normal;font-stretch:normal;font-size:25px;font-family:'Fira Sans';-inkscape-font-specification:FiraSans-Regular;writing-mode:lr-tb;fill:#110f0d;fill-opacity:1;fill-rule:nonzero;stroke:none"
           id="text22"><tspan
             x="0 14.575 27.975 38.950001 47.950001 62.724998 76.099998 86.099998 99.5 114.275 128.675 135.575 147.77499 154.64999 169 176.075 187.8 202.25 215.64999 223.22501 230.10001 244.7 259.27499 272.67499 280.02499 292.77499 304.45001 311.52499 323.45001"
             y="0"
             sodipodi:role="line"
             id="tspan18">Cartographic Visual Analysis </tspan><tspan
             x="0 14.8 23.424999 30.299999 45.549999 52.5 65.75 72.625 88.724998 102.45 112.075 125.925 132.8 146.72501 160.72501 170.89999"
             y="36"
             sodipodi:role="line"
             id="tspan20">of Big Data Sets</tspan></text><text
           transform="matrix(1,0,0,-1,117.604,369.4746)"
           style="font-style:italic;font-variant:normal;font-weight:normal;font-stretch:normal;font-size:14px;font-family:'Noticia Text';-inkscape-font-specification:NoticiaText-Italic;writing-mode:lr-tb;fill:#110f0d;fill-opacity:1;fill-rule:nonzero;stroke:none"
           id="text26"><tspan
             x="0 7.098 15.75 19.768 28.573999 32.745998 36.540001 41.439999 49.938 56.265999 62.495998 66.639999"
             y="0"
             sodipodi:role="line"
             id="tspan24">Ph.D. thesis</tspan></text><text
           transform="matrix(1,0,0,-1,117.604,346.7354)"
           style="font-variant:normal;font-weight:normal;font-stretch:normal;font-size:16px;font-family:'Noticia Text';-inkscape-font-specification:NoticiaText-Regular;writing-mode:lr-tb;fill:#110f0d;fill-opacity:1;fill-rule:nonzero;stroke:none"
           id="text30"><tspan
             x="0 8.7200003 17.104 23.024 31.120001 38.271999 42.816002 53.472 64.031998 73.632004 80.704002 89.008003 93.503998 103.104"
             y="0"
             sodipodi:role="line"
             id="tspan28">Peter Ondrejka</tspan></text><text
           transform="matrix(1,0,0,-1,117.604,108.8555)"
           style="font-style:italic;font-variant:normal;font-weight:normal;font-stretch:normal;font-size:13px;font-family:'Noticia Text';-inkscape-font-specification:NoticiaText-Italic;writing-mode:lr-tb;fill:#110f0d;fill-opacity:1;fill-rule:nonzero;stroke:none"
           id="text34"><tspan
             x="0 6.6430001 14.664 21.983 27.937 33.813 39.858002 43.888 49.750999 56.667"
             y="0"
             sodipodi:role="line"
             id="tspan32">Supervisor</tspan></text><text
           transform="matrix(1,0,0,-1,187.141,108.8555)"
           style="font-variant:normal;font-weight:normal;font-stretch:normal;font-size:13px;font-family:'Noticia Text';-inkscape-font-specification:NoticiaText-Regular;writing-mode:lr-tb;fill:#110f0d;fill-opacity:1;fill-rule:nonzero;stroke:none"
           id="text38"><tspan
             x="0 12.194 19.006001 23.594999 27.091999 30.576 38.792 46.098 51.375999 57.941002 62.009998 65.507004 72.266998"
             y="0"
             sodipodi:role="line"
             id="tspan36">Mgr. Karel St</tspan></text><text
           transform="matrix(1,0,0,-1,264.01,108.8555)"
           style="font-variant:normal;font-weight:normal;font-stretch:normal;font-size:13px;font-family:'Noticia Text';-inkscape-font-specification:NoticiaText-Regular;writing-mode:lr-tb;fill:#110f0d;fill-opacity:1;fill-rule:nonzero;stroke:none"
           id="text42"><tspan
             x="0 7.3060002 15.847 22.412001 29.926001 33.423 36.919998 43.914001 52.312 55.808998 64.454002 67.950996 116.909 124.267 129.79201 138.33299 145.405 148.90199 155.129 162.591 168.81799"
             y="0"
             sodipodi:role="line"
             id="tspan40">aněk, Ph.D. Brno 2021</tspan></text><text
           transform="matrix(1,0,0,-1,218.9023,603.4902)"
           style="font-variant:normal;font-weight:normal;font-stretch:normal;font-size:11px;font-family:Arial;-inkscape-font-specification:ArialMT;writing-mode:lr-tb;fill:#3844a2;fill-opacity:1;fill-rule:nonzero;stroke:none"
           id="text46"><tspan
             x="0 8.085 14.344 20.603001 26.862 30.667999 33.868999 43.174999 49.433998 55.693001 58.894001 62.095001 68.353996 71.555 74.755997 83.457001 89.716003 95.974998 102.234 106.04 112.299 118.558 124.817"
             y="0"
             sodipodi:role="line"
             id="tspan44">Department of Geography</tspan></text><g
           id="g48"
           transform="translate(193.4336,622.8633)"><path
             d="M 0,0 V -1.353 H 10.389 V 0 H 7.086 v 21.617 h 3.303 v 1.354 H 0 V 21.617 H 3.265 V 0 Z m -16.505,-1.353 h 3.822 v 24.324 h -3.822 z m -5.076,24.324 3.613,-24.324 h 1.326 l -3.612,24.324 z M -25.54,-1.353 h 3.822 V 22.971 H -25.54 Z M -49.553,22.971 V 4.243 c 0,-3.264 2.954,-5.806 6.117,-5.806 3.165,0 6.118,2.542 6.118,5.806 V 22.971 H -41.14 V 4.38 c 0,-1.316 -1.179,-2.258 -2.296,-2.258 -1.114,0 -2.295,0.942 -2.295,2.258 V 22.971 Z M -63.9,-1.353 h 3.822 V 22.971 H -63.9 Z m -1.427,24.324 -2.359,-24.324 h 1.281 l 2.368,24.324 z m -6.154,0 2.368,-24.324 h 1.28 l -2.359,24.324 z m -3.922,-24.324 h 3.785 v 24.324 h -3.785 z"
             style="fill:#3844a2;fill-opacity:1;fill-rule:nonzero;stroke:none"
             id="path50" /></g><g
           id="g52"
           transform="translate(169.1465,587.521)"><path
             d="M 0,0 V -1.216 H 10.352 V 0 H 6.118 v 21.891 h 4.234 v 1.216 H 0 V 21.891 H 4.234 V 0 Z m -18.901,-1.427 c 3.328,0 6.008,2.368 6.008,5.806 v 0.832 h -1.875 V 4.417 c 0,-2.259 -1.984,-4.033 -4.133,-4.033 -2.232,0 -4.143,1.774 -4.143,4.033 v 13.057 c 0,2.259 1.911,4.033 4.143,4.033 2.149,0 4.133,-1.774 4.133,-4.033 v -0.868 h 1.875 v 0.905 c 0,3.337 -2.68,5.807 -6.008,5.807 -3.302,0 -6.017,-2.47 -6.017,-5.807 V 4.379 c 0,-3.438 2.715,-5.806 6.017,-5.806 m -24.571,0 c 3.338,0 6.008,2.368 6.008,5.806 v 1.492 c 0,3.959 -3.329,5.321 -5.624,5.842 -2.122,0.485 -4.517,1.28 -4.517,4.134 v 1.627 c 0,2.259 1.948,4.033 4.133,4.033 2.158,0 4.133,-1.774 4.133,-4.033 v -0.868 h 1.875 v 0.905 c 0,3.338 -2.67,5.807 -6.008,5.807 -3.338,0 -6.008,-2.47 -6.008,-5.807 v -1.664 c 0,-4.07 3.438,-5.349 5.56,-5.844 2.222,-0.483 4.581,-1.28 4.581,-4.17 V 4.417 c 0,-2.259 -1.947,-4.033 -4.097,-4.033 -2.194,0 -4.169,1.774 -4.169,4.033 V 5.211 H -49.48 V 4.379 c 0,-3.438 2.67,-5.806 6.008,-5.806"
             style="fill:#3844a2;fill-opacity:1;fill-rule:nonzero;stroke:none"
             id="path54" /></g><g
           id="g56"
           transform="translate(342.4492,643.0264)"><path
             d="m 0,0 h -1.975 l -0.758,-2.332 c -0.312,-0.96 -0.577,-1.947 -0.805,-2.917 h -0.027 c -0.219,0.97 -0.486,1.957 -0.769,2.917 L -5.047,0 h -2.057 l 1.975,-5.66 c 0.274,-0.786 0.328,-1.006 0.328,-1.262 0,-0.686 -0.512,-1.125 -1.279,-1.125 -0.283,0 -0.55,0.037 -0.74,0.11 v -1.536 c 0.293,-0.073 0.658,-0.11 1.005,-0.11 1.738,0 2.615,0.613 3.319,2.578 z m -8.056,-5.522 c -0.658,0 -0.904,0.301 -0.904,1.069 v 3.027 h 1.334 V 0 H -8.96 v 1.811 h -1.921 V 0 h -1.125 v -1.426 h 1.125 v -3.375 c 0,-1.618 0.704,-2.258 2.305,-2.258 0.328,0 0.759,0.054 1.014,0.137 v 1.463 C -7.681,-5.496 -7.873,-5.522 -8.056,-5.522 M -13.049,0 h -1.92 v -6.967 h 1.92 z m 0,2.799 h -1.92 V 1.152 h 1.92 z m -6.51,-2.579 c -1.728,0 -2.88,-0.887 -2.88,-2.14 0,-1.618 1.243,-1.893 2.414,-2.195 1.079,-0.283 1.6,-0.411 1.6,-1.014 0,-0.412 -0.339,-0.668 -1.015,-0.668 -0.795,0 -1.217,0.393 -1.217,1.097 h -1.947 c 0,-1.692 1.188,-2.487 3.127,-2.487 1.893,0 3.073,0.878 3.073,2.186 0,1.701 -1.372,2.011 -2.625,2.34 -1.051,0.275 -1.491,0.403 -1.491,0.896 0,0.393 0.33,0.641 0.943,0.641 0.685,0 1.098,-0.302 1.098,-1.016 h 1.837 c 0,1.555 -1.097,2.36 -2.917,2.36 M -23.72,0.11 c -0.823,0 -1.436,-0.339 -1.902,-1.098 h -0.026 V 0 h -1.766 v -6.967 h 1.912 v 3.291 c 0,1.372 0.63,2.113 1.81,2.113 0.192,0 0.393,-0.028 0.602,-0.064 v 1.655 c -0.181,0.054 -0.438,0.082 -0.63,0.082 m -8.558,-1.244 c 0.776,0 1.398,-0.484 1.527,-1.536 h -3.046 c 0.147,1.052 0.74,1.536 1.519,1.536 m 0.017,-4.69 c -0.823,0 -1.526,0.502 -1.582,1.947 h 5.012 c 0,0.769 -0.073,1.298 -0.22,1.784 -0.439,1.407 -1.618,2.313 -3.227,2.313 -2.177,0 -3.458,-1.592 -3.458,-3.649 0,-2.222 1.281,-3.758 3.475,-3.758 1.847,0 3.055,1.061 3.329,2.332 h -1.957 c -0.1,-0.558 -0.603,-0.969 -1.372,-0.969 M -38.378,-6.967 -36.037,0 h -2.003 l -0.805,-2.743 c -0.292,-0.988 -0.549,-2.002 -0.767,-3.018 h -0.029 c -0.219,1.016 -0.483,2.03 -0.767,3.018 L -41.223,0 h -2.002 l 2.351,-6.967 z M -44.057,0 h -1.92 v -6.967 h 1.92 z m 0,2.799 h -1.92 V 1.152 h 1.92 z m -6.282,-2.635 c -0.887,0 -1.591,-0.419 -2.048,-1.041 h -0.018 V 0 h -1.802 v -6.967 h 1.92 v 3.731 c 0,1.261 0.577,1.892 1.372,1.892 0.75,0 1.225,-0.476 1.225,-1.536 v -4.087 h 1.92 v 4.279 c 0,1.893 -1.005,2.852 -2.569,2.852 m -5.844,2.635 h -2.01 v -5.963 c 0,-1.454 -0.66,-2.24 -1.875,-2.24 -1.207,0 -1.866,0.786 -1.866,2.24 v 5.963 h -2.012 v -6.035 c 0,-2.579 1.399,-3.951 3.878,-3.951 2.487,0 3.885,1.372 3.885,3.951 z m -11.823,-9.766 -2.935,3.758 2.642,3.209 h -2.157 l -2.259,-2.808 h -0.027 v 5.607 h -1.911 v -9.766 h 1.911 v 3.264 h 0.027 l 2.332,-3.264 z M -75.495,0 h -1.975 l -0.759,-2.332 c -0.31,-0.96 -0.568,-1.947 -0.805,-2.917 h -0.027 c -0.219,0.97 -0.476,1.957 -0.768,2.917 L -80.543,0 h -2.058 l 1.976,-5.66 c 0.274,-0.786 0.329,-1.006 0.329,-1.262 0,-0.686 -0.503,-1.125 -1.27,-1.125 -0.293,0 -0.559,0.037 -0.75,0.11 v -1.536 c 0.293,-0.073 0.658,-0.11 1.004,-0.11 1.739,0 2.617,0.613 3.321,2.578 z m -7.754,0.11 c -0.823,0 -1.436,-0.339 -1.902,-1.098 h -0.028 V 0 h -1.765 v -6.967 h 1.921 v 3.291 c 0,1.372 0.622,2.113 1.8,2.113 0.194,0 0.394,-0.028 0.605,-0.064 v 1.655 c -0.183,0.054 -0.44,0.082 -0.631,0.082 m -7.334,-4.143 c 0,-0.63 -0.073,-0.996 -0.403,-1.325 -0.273,-0.275 -0.695,-0.403 -1.097,-0.403 -0.667,0 -1.024,0.357 -1.024,0.878 0,0.567 0.33,0.823 1.125,0.961 0.412,0.072 0.987,0.128 1.399,0.155 z m -1.143,4.253 c -1.984,0 -2.944,-1.07 -3.018,-2.396 h 1.866 c 0.027,0.658 0.438,1.052 1.152,1.052 0.677,0 1.143,-0.356 1.143,-1.235 v -0.247 c -0.438,-0.027 -1.226,-0.11 -1.746,-0.192 -2.013,-0.31 -2.699,-1.079 -2.699,-2.223 0,-1.206 0.888,-2.111 2.368,-2.111 0.961,0 1.747,0.356 2.269,1.097 h 0.027 c 0,-0.338 0.028,-0.64 0.093,-0.932 h 1.727 c -0.119,0.466 -0.192,1.032 -0.192,1.911 v 2.523 c 0,1.821 -1.015,2.753 -2.99,2.753 m -7.525,0 c -1.729,0 -2.881,-0.887 -2.881,-2.14 0,-1.618 1.243,-1.893 2.414,-2.195 1.088,-0.283 1.6,-0.411 1.6,-1.014 0,-0.412 -0.339,-0.668 -1.006,-0.668 -0.795,0 -1.225,0.393 -1.225,1.097 h -1.948 c 0,-1.692 1.198,-2.487 3.128,-2.487 1.893,0 3.071,0.878 3.071,2.186 0,1.701 -1.371,2.011 -2.614,2.34 -1.061,0.275 -1.5,0.403 -1.5,0.896 0,0.393 0.329,0.641 0.951,0.641 0.686,0 1.088,-0.302 1.088,-1.016 h 1.847 c 0,1.555 -1.106,2.36 -2.925,2.36 m -6.228,-4.253 c 0,-0.63 -0.064,-0.996 -0.393,-1.325 -0.275,-0.275 -0.704,-0.403 -1.098,-0.403 -0.676,0 -1.033,0.357 -1.033,0.878 0,0.567 0.329,0.823 1.125,0.961 0.411,0.072 0.988,0.128 1.399,0.155 z m -1.134,4.253 c -1.993,0 -2.953,-1.07 -3.017,-2.396 h 1.864 c 0.028,0.658 0.431,1.052 1.153,1.052 0.668,0 1.134,-0.356 1.134,-1.235 v -0.247 c -0.44,-0.027 -1.217,-0.11 -1.738,-0.192 -2.02,-0.31 -2.706,-1.079 -2.706,-2.223 0,-1.206 0.896,-2.111 2.377,-2.111 0.96,0 1.738,0.356 2.259,1.097 h 0.027 c 0,-0.338 0.027,-0.64 0.1,-0.932 h 1.729 c -0.129,0.466 -0.202,1.032 -0.202,1.911 v 2.523 c 0,1.821 -1.005,2.753 -2.98,2.753 m -4.792,-7.187 v 9.766 h -3.237 l -1.417,-4.482 c -0.366,-1.179 -0.694,-2.404 -0.961,-3.593 h -0.026 c -0.257,1.189 -0.586,2.414 -0.961,3.593 l -1.408,4.482 h -3.238 v -9.766 h 1.93 v 4.855 c 0,1.225 -0.027,2.442 -0.082,3.667 h 0.028 c 0.319,-1.198 0.676,-2.414 1.042,-3.594 l 1.554,-4.928 h 2.305 l 1.545,4.928 c 0.374,1.18 0.731,2.396 1.042,3.594 h 0.028 c -0.054,-1.225 -0.082,-2.442 -0.082,-3.667 v -4.855 z"
             style="fill:#3844a2;fill-opacity:1;fill-rule:nonzero;stroke:none"
             id="path58" /></g><g
           id="g60"
           transform="translate(332.9033,625.4326)"><path
             d="M 0,0 C 0.768,0 1.399,-0.484 1.518,-1.536 H -1.527 C -1.372,-0.484 -0.786,0 0,0 m 0.009,-4.69 c -0.823,0 -1.519,0.502 -1.572,1.947 h 5.001 c 0,0.768 -0.065,1.298 -0.22,1.784 C 2.779,0.448 1.6,1.354 0,1.354 c -2.187,0 -3.456,-1.592 -3.456,-3.649 0,-2.222 1.269,-3.758 3.465,-3.758 1.856,0 3.062,1.061 3.338,2.332 H 1.38 C 1.289,-4.279 0.776,-4.69 0.009,-4.69 m -7.745,6.044 c -2.131,0 -3.512,-1.454 -3.512,-3.704 0,-2.249 1.381,-3.703 3.512,-3.703 1.874,0 3.136,1.179 3.292,2.953 h -2.022 c -0.055,-0.904 -0.548,-1.472 -1.289,-1.472 -0.933,0 -1.489,0.851 -1.489,2.222 0,1.372 0.556,2.222 1.489,2.222 0.741,0 1.234,-0.502 1.308,-1.326 h 2.003 C -4.6,0.174 -5.862,1.354 -7.736,1.354 m -7.425,-0.056 c -0.888,0 -1.592,-0.42 -2.04,-1.041 h -0.027 v 0.877 h -1.802 v -6.967 h 1.921 v 3.731 c 0,1.261 0.576,1.892 1.372,1.892 0.758,0 1.224,-0.476 1.224,-1.536 v -4.087 h 1.921 v 4.279 c 0,1.893 -1.006,2.852 -2.569,2.852 M -23.886,0 c 0.77,0 1.4,-0.484 1.529,-1.536 h -3.045 c 0.145,1.052 0.74,1.536 1.516,1.536 m 0.02,-4.69 c -0.824,0 -1.528,0.502 -1.583,1.947 h 5.011 c 0,0.768 -0.073,1.298 -0.219,1.784 -0.44,1.407 -1.618,2.313 -3.229,2.313 -2.176,0 -3.456,-1.592 -3.456,-3.649 0,-2.222 1.28,-3.758 3.476,-3.758 1.846,0 3.053,1.061 3.328,2.332 h -1.957 c -0.101,-0.558 -0.604,-0.969 -1.371,-0.969 m -4.883,5.824 h -1.921 v -6.967 h 1.921 z m 0,2.799 H -30.67 V 2.287 h 1.921 z m -6.575,-2.579 c -2.121,0 -3.512,-1.454 -3.512,-3.704 0,-2.249 1.391,-3.703 3.512,-3.703 1.883,0 3.145,1.179 3.292,2.953 h -2.013 c -0.055,-0.904 -0.549,-1.472 -1.29,-1.472 -0.932,0 -1.498,0.851 -1.498,2.222 0,1.372 0.566,2.222 1.498,2.222 0.741,0 1.235,-0.502 1.3,-1.326 h 2.003 c -0.147,1.628 -1.409,2.808 -3.292,2.808 m -8.505,2.798 c -2.14,0 -3.603,-1.18 -3.603,-2.889 0,-2.14 1.673,-2.579 3.512,-3.046 1.381,-0.357 2.011,-0.521 2.011,-1.39 0,-0.768 -0.658,-1.244 -1.682,-1.244 -1.253,0 -1.893,0.614 -1.893,1.793 h -2.084 c 0,-2.222 1.517,-3.429 3.95,-3.429 2.276,0 3.813,1.234 3.813,3.091 0,2.121 -1.591,2.606 -3.429,3.054 -1.537,0.384 -2.13,0.631 -2.13,1.39 0,0.631 0.603,1.07 1.499,1.07 1.106,0 1.701,-0.594 1.701,-1.61 h 2.039 c 0,2.103 -1.263,3.21 -3.704,3.21 m -7.764,-1.537 c 0.129,0 0.266,-0.009 0.348,-0.036 v 1.354 c -0.237,0.054 -0.621,0.109 -0.951,0.109 -1.491,0 -2.304,-0.75 -2.304,-2.277 V 1.134 h -1.152 v -1.426 h 1.152 v -5.541 h 1.894 v 5.541 h 1.315 v 1.426 h -1.315 v 0.403 c 0,0.786 0.345,1.078 1.013,1.078 m -8.238,-2.743 c 0.941,0 1.545,-0.86 1.545,-2.222 0,-1.353 -0.604,-2.222 -1.545,-2.222 -0.951,0 -1.555,0.869 -1.555,2.222 0,1.362 0.604,2.222 1.555,2.222 m 0,1.482 c -2.187,0 -3.566,-1.436 -3.566,-3.704 0,-2.258 1.379,-3.703 3.566,-3.703 2.176,0 3.566,1.445 3.566,3.703 0,2.268 -1.39,3.704 -3.566,3.704 m -7.105,-0.22 h -1.975 l -0.759,-2.332 c -0.311,-0.96 -0.577,-1.948 -0.806,-2.917 h -0.027 c -0.22,0.969 -0.484,1.957 -0.768,2.917 l -0.713,2.332 h -2.058 l 1.975,-5.66 c 0.275,-0.787 0.331,-1.005 0.331,-1.263 0,-0.686 -0.513,-1.133 -1.282,-1.133 -0.284,0 -0.547,0.046 -0.741,0.119 v -1.536 c 0.293,-0.073 0.659,-0.11 1.006,-0.11 1.737,0 2.616,0.613 3.32,2.578 z m -8.057,-5.522 c -0.659,0 -0.905,0.301 -0.905,1.07 v 3.026 h 1.335 v 1.426 h -1.335 v 1.811 h -1.92 V 1.134 h -1.125 v -1.426 h 1.125 v -3.375 c 0,-1.618 0.704,-2.258 2.304,-2.258 0.329,0 0.759,0.054 1.015,0.136 v 1.464 c -0.119,-0.036 -0.312,-0.063 -0.494,-0.063 m -4.984,8.321 h -1.921 v -9.766 h 1.921 z m -7.653,-9.932 c 0.887,0 1.591,0.43 2.039,1.043 h 0.027 v -0.877 h 1.793 v 6.967 h -1.911 v -3.731 c 0,-1.262 -0.577,-1.892 -1.372,-1.892 -0.759,0 -1.226,0.485 -1.226,1.536 v 4.087 h -1.92 v -4.28 c 0,-1.893 1.006,-2.853 2.57,-2.853 m -7.152,7.353 c -2.13,0 -3.511,-1.454 -3.511,-3.704 0,-2.249 1.381,-3.703 3.511,-3.703 1.876,0 3.147,1.179 3.293,2.953 h -2.021 c -0.055,-0.904 -0.548,-1.472 -1.289,-1.472 -0.924,0 -1.491,0.851 -1.491,2.222 0,1.372 0.567,2.222 1.491,2.222 0.741,0 1.234,-0.502 1.307,-1.326 h 2.003 c -0.146,1.628 -1.417,2.808 -3.293,2.808 m -6.693,-4.253 c 0,-0.63 -0.064,-0.997 -0.393,-1.325 -0.274,-0.275 -0.704,-0.403 -1.107,-0.403 -0.667,0 -1.023,0.356 -1.023,0.878 0,0.567 0.329,0.823 1.124,0.961 0.412,0.072 0.988,0.127 1.399,0.155 z m -1.143,4.253 c -1.984,0 -2.945,-1.07 -3.008,-2.396 h 1.865 c 0.027,0.658 0.43,1.052 1.143,1.052 0.677,0 1.143,-0.357 1.143,-1.236 v -0.246 c -0.438,-0.028 -1.216,-0.11 -1.737,-0.192 -2.021,-0.311 -2.707,-1.079 -2.707,-2.223 0,-1.206 0.887,-2.112 2.378,-2.112 0.95,0 1.737,0.357 2.258,1.098 h 0.027 c 0,-0.338 0.029,-0.64 0.101,-0.932 h 1.728 c -0.128,0.466 -0.191,1.032 -0.191,1.911 v 2.524 c 0,1.819 -1.015,2.752 -3,2.752 m -3.968,0.85 v 1.729 h -6.521 v -9.766 h 2.022 v 3.647 h 4.15 v 1.728 h -4.15 v 2.662 z"
             style="fill:#3844a2;fill-opacity:1;fill-rule:nonzero;stroke:none"
             id="path62" /></g></g></g></g></svg>
